ISO-10303-21;
HEADER;
/* Generated by software containing ST-Developer
 * from STEP Tools, Inc. (www.steptools.com) 
 */

FILE_DESCRIPTION(
/* description */ (''),
/* implementation_level */ '2;1');

FILE_NAME(
/* name */ 'Screws,InpettoPadCase.step',
/* time_stamp */ '2026-09-07T22:07:28+02:00',
/* author */ (''),
/* organization */ (''),
/* preprocessor_version */ 'ST-DEVELOPER v20.1',
/* originating_system */ 'Autodesk Translation Framework v15.8.0.0',
/* authorisation */ '');

FILE_SCHEMA (('AUTOMOTIVE_DESIGN { 1 0 10303 214 3 1 1 }'));
ENDSEC;

DATA;
#10=MECHANICAL_DESIGN_GEOMETRIC_PRESENTATION_REPRESENTATION('',(#13,#14,
#15,#16),#248);
#11=SHAPE_REPRESENTATION_RELATIONSHIP('SRR','None',#255,#12);
#12=ADVANCED_BREP_SHAPE_REPRESENTATION('',(#17,#18,#19,#20),#247);
#13=STYLED_ITEM('',(#266),#17);
#14=STYLED_ITEM('',(#266),#18);
#15=STYLED_ITEM('',(#266),#19);
#16=STYLED_ITEM('',(#266),#20);
#17=MANIFOLD_SOLID_BREP('K\X\F6rper22',#129);
#18=MANIFOLD_SOLID_BREP('K\X\F6rper23',#130);
#19=MANIFOLD_SOLID_BREP('K\X\F6rper24',#131);
#20=MANIFOLD_SOLID_BREP('K\X\F6rper25',#132);
#21=PLANE('',#149);
#22=PLANE('',#150);
#23=PLANE('',#154);
#24=PLANE('',#155);
#25=PLANE('',#159);
#26=PLANE('',#160);
#27=PLANE('',#164);
#28=PLANE('',#165);
#29=FACE_OUTER_BOUND('',#41,.T.);
#30=FACE_OUTER_BOUND('',#42,.T.);
#31=FACE_OUTER_BOUND('',#43,.T.);
#32=FACE_OUTER_BOUND('',#44,.T.);
#33=FACE_OUTER_BOUND('',#45,.T.);
#34=FACE_OUTER_BOUND('',#46,.T.);
#35=FACE_OUTER_BOUND('',#47,.T.);
#36=FACE_OUTER_BOUND('',#48,.T.);
#37=FACE_OUTER_BOUND('',#49,.T.);
#38=FACE_OUTER_BOUND('',#50,.T.);
#39=FACE_OUTER_BOUND('',#51,.T.);
#40=FACE_OUTER_BOUND('',#52,.T.);
#41=EDGE_LOOP('',(#89,#90,#91,#92));
#42=EDGE_LOOP('',(#93));
#43=EDGE_LOOP('',(#94));
#44=EDGE_LOOP('',(#95,#96,#97,#98));
#45=EDGE_LOOP('',(#99));
#46=EDGE_LOOP('',(#100));
#47=EDGE_LOOP('',(#101,#102,#103,#104));
#48=EDGE_LOOP('',(#105));
#49=EDGE_LOOP('',(#106));
#50=EDGE_LOOP('',(#107,#108,#109,#110));
#51=EDGE_LOOP('',(#111));
#52=EDGE_LOOP('',(#112));
#53=LINE('',#217,#57);
#54=LINE('',#225,#58);
#55=LINE('',#233,#59);
#56=LINE('',#241,#60);
#57=VECTOR('',#172,2.5);
#58=VECTOR('',#183,2.5);
#59=VECTOR('',#194,2.5);
#60=VECTOR('',#205,2.5);
#61=CIRCLE('',#147,2.5);
#62=CIRCLE('',#148,2.5);
#63=CIRCLE('',#152,2.5);
#64=CIRCLE('',#153,2.5);
#65=CIRCLE('',#157,2.5);
#66=CIRCLE('',#158,2.5);
#67=CIRCLE('',#162,2.5);
#68=CIRCLE('',#163,2.5);
#69=VERTEX_POINT('',#214);
#70=VERTEX_POINT('',#216);
#71=VERTEX_POINT('',#222);
#72=VERTEX_POINT('',#224);
#73=VERTEX_POINT('',#230);
#74=VERTEX_POINT('',#232);
#75=VERTEX_POINT('',#238);
#76=VERTEX_POINT('',#240);
#77=EDGE_CURVE('',#69,#69,#61,.F.);
#78=EDGE_CURVE('',#69,#70,#53,.T.);
#79=EDGE_CURVE('',#70,#70,#62,.F.);
#80=EDGE_CURVE('',#71,#71,#63,.F.);
#81=EDGE_CURVE('',#71,#72,#54,.T.);
#82=EDGE_CURVE('',#72,#72,#64,.F.);
#83=EDGE_CURVE('',#73,#73,#65,.F.);
#84=EDGE_CURVE('',#73,#74,#55,.T.);
#85=EDGE_CURVE('',#74,#74,#66,.F.);
#86=EDGE_CURVE('',#75,#75,#67,.T.);
#87=EDGE_CURVE('',#75,#76,#56,.T.);
#88=EDGE_CURVE('',#76,#76,#68,.T.);
#89=ORIENTED_EDGE('',*,*,#77,.F.);
#90=ORIENTED_EDGE('',*,*,#78,.T.);
#91=ORIENTED_EDGE('',*,*,#79,.T.);
#92=ORIENTED_EDGE('',*,*,#78,.F.);
#93=ORIENTED_EDGE('',*,*,#77,.T.);
#94=ORIENTED_EDGE('',*,*,#79,.F.);
#95=ORIENTED_EDGE('',*,*,#80,.F.);
#96=ORIENTED_EDGE('',*,*,#81,.T.);
#97=ORIENTED_EDGE('',*,*,#82,.T.);
#98=ORIENTED_EDGE('',*,*,#81,.F.);
#99=ORIENTED_EDGE('',*,*,#80,.T.);
#100=ORIENTED_EDGE('',*,*,#82,.F.);
#101=ORIENTED_EDGE('',*,*,#83,.F.);
#102=ORIENTED_EDGE('',*,*,#84,.T.);
#103=ORIENTED_EDGE('',*,*,#85,.T.);
#104=ORIENTED_EDGE('',*,*,#84,.F.);
#105=ORIENTED_EDGE('',*,*,#83,.T.);
#106=ORIENTED_EDGE('',*,*,#85,.F.);
#107=ORIENTED_EDGE('',*,*,#86,.F.);
#108=ORIENTED_EDGE('',*,*,#87,.T.);
#109=ORIENTED_EDGE('',*,*,#88,.T.);
#110=ORIENTED_EDGE('',*,*,#87,.F.);
#111=ORIENTED_EDGE('',*,*,#86,.T.);
#112=ORIENTED_EDGE('',*,*,#88,.F.);
#113=CYLINDRICAL_SURFACE('',#146,2.5);
#114=CYLINDRICAL_SURFACE('',#151,2.5);
#115=CYLINDRICAL_SURFACE('',#156,2.5);
#116=CYLINDRICAL_SURFACE('',#161,2.5);
#117=ADVANCED_FACE('',(#29),#113,.T.);
#118=ADVANCED_FACE('',(#30),#21,.T.);
#119=ADVANCED_FACE('',(#31),#22,.F.);
#120=ADVANCED_FACE('',(#32),#114,.T.);
#121=ADVANCED_FACE('',(#33),#23,.T.);
#122=ADVANCED_FACE('',(#34),#24,.F.);
#123=ADVANCED_FACE('',(#35),#115,.T.);
#124=ADVANCED_FACE('',(#36),#25,.T.);
#125=ADVANCED_FACE('',(#37),#26,.F.);
#126=ADVANCED_FACE('',(#38),#116,.T.);
#127=ADVANCED_FACE('',(#39),#27,.T.);
#128=ADVANCED_FACE('',(#40),#28,.F.);
#129=CLOSED_SHELL('',(#117,#118,#119));
#130=CLOSED_SHELL('',(#120,#121,#122));
#131=CLOSED_SHELL('',(#123,#124,#125));
#132=CLOSED_SHELL('',(#126,#127,#128));
#133=DERIVED_UNIT_ELEMENT(#135,1.);
#134=DERIVED_UNIT_ELEMENT(#250,-3.);
#135=(
MASS_UNIT()
NAMED_UNIT(*)
SI_UNIT(.KILO.,.GRAM.)
);
#136=DERIVED_UNIT((#133,#134));
#137=MEASURE_REPRESENTATION_ITEM('density measure',
POSITIVE_RATIO_MEASURE(952.),#136);
#138=PROPERTY_DEFINITION_REPRESENTATION(#143,#140);
#139=PROPERTY_DEFINITION_REPRESENTATION(#144,#141);
#140=REPRESENTATION('material name',(#142),#247);
#141=REPRESENTATION('density',(#137),#247);
#142=DESCRIPTIVE_REPRESENTATION_ITEM('Kunststoff, undurchsichtig Wei\X\DF',
'Kunststoff, undurchsichtig Wei\X\DF');
#143=PROPERTY_DEFINITION('material property','material name',#257);
#144=PROPERTY_DEFINITION('material property','density of part',#257);
#145=AXIS2_PLACEMENT_3D('',#212,#166,#167);
#146=AXIS2_PLACEMENT_3D('',#213,#168,#169);
#147=AXIS2_PLACEMENT_3D('',#215,#170,#171);
#148=AXIS2_PLACEMENT_3D('',#218,#173,#174);
#149=AXIS2_PLACEMENT_3D('',#219,#175,#176);
#150=AXIS2_PLACEMENT_3D('',#220,#177,#178);
#151=AXIS2_PLACEMENT_3D('',#221,#179,#180);
#152=AXIS2_PLACEMENT_3D('',#223,#181,#182);
#153=AXIS2_PLACEMENT_3D('',#226,#184,#185);
#154=AXIS2_PLACEMENT_3D('',#227,#186,#187);
#155=AXIS2_PLACEMENT_3D('',#228,#188,#189);
#156=AXIS2_PLACEMENT_3D('',#229,#190,#191);
#157=AXIS2_PLACEMENT_3D('',#231,#192,#193);
#158=AXIS2_PLACEMENT_3D('',#234,#195,#196);
#159=AXIS2_PLACEMENT_3D('',#235,#197,#198);
#160=AXIS2_PLACEMENT_3D('',#236,#199,#200);
#161=AXIS2_PLACEMENT_3D('',#237,#201,#202);
#162=AXIS2_PLACEMENT_3D('',#239,#203,#204);
#163=AXIS2_PLACEMENT_3D('',#242,#206,#207);
#164=AXIS2_PLACEMENT_3D('',#243,#208,#209);
#165=AXIS2_PLACEMENT_3D('',#244,#210,#211);
#166=DIRECTION('axis',(0.,0.,1.));
#167=DIRECTION('refdir',(1.,0.,0.));
#168=DIRECTION('center_axis',(0.,1.,0.));
#169=DIRECTION('ref_axis',(1.,0.,0.));
#170=DIRECTION('center_axis',(0.,-1.,0.));
#171=DIRECTION('ref_axis',(1.,0.,0.));
#172=DIRECTION('',(0.,-1.,0.));
#173=DIRECTION('center_axis',(0.,-1.,0.));
#174=DIRECTION('ref_axis',(1.,0.,0.));
#175=DIRECTION('center_axis',(0.,1.,0.));
#176=DIRECTION('ref_axis',(1.,0.,0.));
#177=DIRECTION('center_axis',(0.,1.,0.));
#178=DIRECTION('ref_axis',(1.,0.,0.));
#179=DIRECTION('center_axis',(0.,1.,0.));
#180=DIRECTION('ref_axis',(1.,0.,0.));
#181=DIRECTION('center_axis',(0.,-1.,0.));
#182=DIRECTION('ref_axis',(1.,0.,0.));
#183=DIRECTION('',(0.,-1.,0.));
#184=DIRECTION('center_axis',(0.,-1.,0.));
#185=DIRECTION('ref_axis',(1.,0.,0.));
#186=DIRECTION('center_axis',(0.,1.,0.));
#187=DIRECTION('ref_axis',(1.,0.,0.));
#188=DIRECTION('center_axis',(0.,1.,0.));
#189=DIRECTION('ref_axis',(1.,0.,0.));
#190=DIRECTION('center_axis',(0.,1.,0.));
#191=DIRECTION('ref_axis',(1.,0.,5.55111512312579E-17));
#192=DIRECTION('center_axis',(0.,-1.,0.));
#193=DIRECTION('ref_axis',(1.,0.,5.55111512312579E-17));
#194=DIRECTION('',(0.,-1.,0.));
#195=DIRECTION('center_axis',(0.,-1.,0.));
#196=DIRECTION('ref_axis',(1.,0.,5.55111512312579E-17));
#197=DIRECTION('center_axis',(0.,1.,0.));
#198=DIRECTION('ref_axis',(1.,0.,0.));
#199=DIRECTION('center_axis',(0.,1.,0.));
#200=DIRECTION('ref_axis',(1.,0.,0.));
#201=DIRECTION('center_axis',(0.,1.,0.));
#202=DIRECTION('ref_axis',(1.,0.,0.));
#203=DIRECTION('center_axis',(0.,1.,0.));
#204=DIRECTION('ref_axis',(1.,0.,0.));
#205=DIRECTION('',(0.,-1.,0.));
#206=DIRECTION('center_axis',(0.,1.,0.));
#207=DIRECTION('ref_axis',(1.,0.,0.));
#208=DIRECTION('center_axis',(0.,1.,0.));
#209=DIRECTION('ref_axis',(1.,0.,0.));
#210=DIRECTION('center_axis',(0.,1.,0.));
#211=DIRECTION('ref_axis',(1.,0.,0.));
#212=CARTESIAN_POINT('',(0.,0.,0.));
#213=CARTESIAN_POINT('Origin',(-207.883373050279,-47.7948257956169,-179.412875344488));
#214=CARTESIAN_POINT('',(-210.383373050279,22.,-179.412875344488));
#215=CARTESIAN_POINT('Origin',(-207.883373050279,22.,-179.412875344488));
#216=CARTESIAN_POINT('',(-210.383373050279,8.88178419700125E-15,-179.412875344488));
#217=CARTESIAN_POINT('',(-210.383373050279,-47.7948257956169,-179.412875344488));
#218=CARTESIAN_POINT('Origin',(-207.883373050279,8.88178419700125E-15,-179.412875344488));
#219=CARTESIAN_POINT('Origin',(-6.55591547958169,22.,-181.895070978389));
#220=CARTESIAN_POINT('Origin',(-6.55591547958169,8.88178419700125E-15,-181.895070978389));
#221=CARTESIAN_POINT('Origin',(-215.340653557283,96.8025343677096,-162.946800436539));
#222=CARTESIAN_POINT('',(-217.840653557283,22.,-162.946800436539));
#223=CARTESIAN_POINT('Origin',(-215.340653557283,22.,-162.946800436539));
#224=CARTESIAN_POINT('',(-217.840653557283,0.,-162.946800436539));
#225=CARTESIAN_POINT('',(-217.840653557283,96.8025343677096,-162.946800436539));
#226=CARTESIAN_POINT('Origin',(-215.340653557283,0.,-162.946800436539));
#227=CARTESIAN_POINT('Origin',(-215.65,22.,-100.));
#228=CARTESIAN_POINT('Origin',(-215.65,8.88178419700125E-15,-100.));
#229=CARTESIAN_POINT('Origin',(-206.162328483949,71.4430613012132,-164.608927672959));
#230=CARTESIAN_POINT('',(-208.662328483949,22.,-164.608927672959));
#231=CARTESIAN_POINT('Origin',(-206.162328483949,22.,-164.608927672959));
#232=CARTESIAN_POINT('',(-208.662328483949,0.,-164.608927672959));
#233=CARTESIAN_POINT('',(-208.662328483949,71.4430613012132,-164.608927672959));
#234=CARTESIAN_POINT('Origin',(-206.162328483949,0.,-164.608927672959));
#235=CARTESIAN_POINT('Origin',(-13.3226377460727,22.,-28.7770805848265));
#236=CARTESIAN_POINT('Origin',(-13.3226377460727,4.44089209850063E-15,-28.7770805848265));
#237=CARTESIAN_POINT('Origin',(-215.000001490116,8.88178419700125E-15,-180.000001117587));
#238=CARTESIAN_POINT('',(-217.500001490116,22.,-180.000001117587));
#239=CARTESIAN_POINT('Origin',(-215.000001490116,22.,-180.000001117587));
#240=CARTESIAN_POINT('',(-217.500001490116,8.88178419700125E-15,-180.000001117587));
#241=CARTESIAN_POINT('',(-217.500001490116,8.88178419700125E-15,-180.000001117587));
#242=CARTESIAN_POINT('Origin',(-215.000001490116,8.88178419700125E-15,-180.000001117587));
#243=CARTESIAN_POINT('Origin',(-208.245900397151,22.,-171.952138975675));
#244=CARTESIAN_POINT('Origin',(-208.245900397151,4.44089209850063E-14,-171.952138975675));
#245=UNCERTAINTY_MEASURE_WITH_UNIT(LENGTH_MEASURE(0.01),#249,
'DISTANCE_ACCURACY_VALUE',
'Maximum model space distance between geometric entities at asserted c
onnectivities');
#246=UNCERTAINTY_MEASURE_WITH_UNIT(LENGTH_MEASURE(0.01),#249,
'DISTANCE_ACCURACY_VALUE',
'Maximum model space distance between geometric entities at asserted c
onnectivities');
#247=(
GEOMETRIC_REPRESENTATION_CONTEXT(3)
GLOBAL_UNCERTAINTY_ASSIGNED_CONTEXT((#245))
GLOBAL_UNIT_ASSIGNED_CONTEXT((#249,#251,#252))
REPRESENTATION_CONTEXT('','3D')
);
#248=(
GEOMETRIC_REPRESENTATION_CONTEXT(3)
GLOBAL_UNCERTAINTY_ASSIGNED_CONTEXT((#246))
GLOBAL_UNIT_ASSIGNED_CONTEXT((#249,#251,#252))
REPRESENTATION_CONTEXT('','3D')
);
#249=(
LENGTH_UNIT()
NAMED_UNIT(*)
SI_UNIT(.MILLI.,.METRE.)
);
#250=(
LENGTH_UNIT()
NAMED_UNIT(*)
SI_UNIT($,.METRE.)
);
#251=(
NAMED_UNIT(*)
PLANE_ANGLE_UNIT()
SI_UNIT($,.RADIAN.)
);
#252=(
NAMED_UNIT(*)
SI_UNIT($,.STERADIAN.)
SOLID_ANGLE_UNIT()
);
#253=SHAPE_DEFINITION_REPRESENTATION(#254,#255);
#254=PRODUCT_DEFINITION_SHAPE('',$,#257);
#255=SHAPE_REPRESENTATION('',(#145),#247);
#256=PRODUCT_DEFINITION_CONTEXT('part definition',#261,'design');
#257=PRODUCT_DEFINITION('2026-08-12-17-39-30-226','Case Hackpad',#258,#256);
#258=PRODUCT_DEFINITION_FORMATION('',$,#263);
#259=PRODUCT_RELATED_PRODUCT_CATEGORY('Case Hackpad','Case Hackpad',(#263));
#260=APPLICATION_PROTOCOL_DEFINITION('international standard',
'automotive_design',2009,#261);
#261=APPLICATION_CONTEXT(
'Core Data for Automotive Mechanical Design Process');
#262=PRODUCT_CONTEXT('part definition',#261,'mechanical');
#263=PRODUCT('2026-08-12-17-39-30-226','Case Hackpad',$,(#262));
#264=PRESENTATION_STYLE_ASSIGNMENT((#279));
#265=PRESENTATION_STYLE_ASSIGNMENT((#280));
#266=PRESENTATION_STYLE_ASSIGNMENT((#281));
#267=PRESENTATION_STYLE_ASSIGNMENT((#282));
#268=PRESENTATION_STYLE_ASSIGNMENT((#283));
#269=PRESENTATION_STYLE_ASSIGNMENT((#284));
#270=PRESENTATION_STYLE_ASSIGNMENT((#285));
#271=PRESENTATION_STYLE_ASSIGNMENT((#286));
#272=PRESENTATION_STYLE_ASSIGNMENT((#287));
#273=PRESENTATION_STYLE_ASSIGNMENT((#288));
#274=PRESENTATION_STYLE_ASSIGNMENT((#289));
#275=PRESENTATION_STYLE_ASSIGNMENT((#290));
#276=PRESENTATION_STYLE_ASSIGNMENT((#291));
#277=PRESENTATION_STYLE_ASSIGNMENT((#292));
#278=PRESENTATION_STYLE_ASSIGNMENT((#293));
#279=SURFACE_STYLE_USAGE(.BOTH.,#294);
#280=SURFACE_STYLE_USAGE(.BOTH.,#295);
#281=SURFACE_STYLE_USAGE(.BOTH.,#296);
#282=SURFACE_STYLE_USAGE(.BOTH.,#297);
#283=SURFACE_STYLE_USAGE(.BOTH.,#298);
#284=SURFACE_STYLE_USAGE(.BOTH.,#299);
#285=SURFACE_STYLE_USAGE(.BOTH.,#300);
#286=SURFACE_STYLE_USAGE(.BOTH.,#301);
#287=SURFACE_STYLE_USAGE(.BOTH.,#302);
#288=SURFACE_STYLE_USAGE(.BOTH.,#303);
#289=SURFACE_STYLE_USAGE(.BOTH.,#304);
#290=SURFACE_STYLE_USAGE(.BOTH.,#305);
#291=SURFACE_STYLE_USAGE(.BOTH.,#306);
#292=SURFACE_STYLE_USAGE(.BOTH.,#307);
#293=SURFACE_STYLE_USAGE(.BOTH.,#308);
#294=SURFACE_SIDE_STYLE('',(#309));
#295=SURFACE_SIDE_STYLE('',(#310));
#296=SURFACE_SIDE_STYLE('',(#311));
#297=SURFACE_SIDE_STYLE('',(#312));
#298=SURFACE_SIDE_STYLE('',(#313));
#299=SURFACE_SIDE_STYLE('',(#314));
#300=SURFACE_SIDE_STYLE('',(#315));
#301=SURFACE_SIDE_STYLE('',(#316));
#302=SURFACE_SIDE_STYLE('',(#317));
#303=SURFACE_SIDE_STYLE('',(#318));
#304=SURFACE_SIDE_STYLE('',(#319));
#305=SURFACE_SIDE_STYLE('',(#320));
#306=SURFACE_SIDE_STYLE('',(#321));
#307=SURFACE_SIDE_STYLE('',(#322));
#308=SURFACE_SIDE_STYLE('',(#323));
#309=SURFACE_STYLE_FILL_AREA(#324);
#310=SURFACE_STYLE_FILL_AREA(#325);
#311=SURFACE_STYLE_FILL_AREA(#326);
#312=SURFACE_STYLE_FILL_AREA(#327);
#313=SURFACE_STYLE_FILL_AREA(#328);
#314=SURFACE_STYLE_FILL_AREA(#329);
#315=SURFACE_STYLE_FILL_AREA(#330);
#316=SURFACE_STYLE_FILL_AREA(#331);
#317=SURFACE_STYLE_FILL_AREA(#332);
#318=SURFACE_STYLE_FILL_AREA(#333);
#319=SURFACE_STYLE_FILL_AREA(#334);
#320=SURFACE_STYLE_FILL_AREA(#335);
#321=SURFACE_STYLE_FILL_AREA(#336);
#322=SURFACE_STYLE_FILL_AREA(#337);
#323=SURFACE_STYLE_FILL_AREA(#338);
#324=FILL_AREA_STYLE('Kunststoff - gl\X\E4nzend (Wei\X\DF)',(#339));
#325=FILL_AREA_STYLE('Opaque(229,229,229)',(#340));
#326=FILL_AREA_STYLE('Aluminium - eloxiert, rau (Blau)',(#341));
#327=FILL_AREA_STYLE('Opaque(242,242,255)',(#342));
#328=FILL_AREA_STYLE('Opaque(255,255,255)',(#343));
#329=FILL_AREA_STYLE('Opaque(211,214,211)',(#344));
#330=FILL_AREA_STYLE('Opaque(127,127,127)',(#345));
#331=FILL_AREA_STYLE('Opaque(0,191,161)',(#346));
#332=FILL_AREA_STYLE('Opaque(63,63,63)',(#347));
#333=FILL_AREA_STYLE('Opaque(244,244,244)',(#348));
#334=FILL_AREA_STYLE('Opaque(242,242,242)',(#349));
#335=FILL_AREA_STYLE('Opaque(10,74,171)',(#350));
#336=FILL_AREA_STYLE('Opaque(5,5,5)',(#351));
#337=FILL_AREA_STYLE('Opaque(204,204,204)',(#352));
#338=FILL_AREA_STYLE('Opaque(10,10,10)',(#353));
#339=FILL_AREA_STYLE_COLOUR('Kunststoff - gl\X\E4nzend (Wei\X\DF)',#354);
#340=FILL_AREA_STYLE_COLOUR('Opaque(229,229,229)',#355);
#341=FILL_AREA_STYLE_COLOUR('Aluminium - eloxiert, rau (Blau)',#356);
#342=FILL_AREA_STYLE_COLOUR('Opaque(242,242,255)',#357);
#343=FILL_AREA_STYLE_COLOUR('Opaque(255,255,255)',#358);
#344=FILL_AREA_STYLE_COLOUR('Opaque(211,214,211)',#359);
#345=FILL_AREA_STYLE_COLOUR('Opaque(127,127,127)',#360);
#346=FILL_AREA_STYLE_COLOUR('Opaque(0,191,161)',#361);
#347=FILL_AREA_STYLE_COLOUR('Opaque(63,63,63)',#362);
#348=FILL_AREA_STYLE_COLOUR('Opaque(244,244,244)',#363);
#349=FILL_AREA_STYLE_COLOUR('Opaque(242,242,242)',#364);
#350=FILL_AREA_STYLE_COLOUR('Opaque(10,74,171)',#365);
#351=FILL_AREA_STYLE_COLOUR('Opaque(5,5,5)',#366);
#352=FILL_AREA_STYLE_COLOUR('Opaque(204,204,204)',#367);
#353=FILL_AREA_STYLE_COLOUR('Opaque(10,10,10)',#368);
#354=COLOUR_RGB('Kunststoff - gl\X\E4nzend (Wei\X\DF)',0.964705882352941,
0.964705882352941,0.952941176470588);
#355=COLOUR_RGB('Opaque(229,229,229)',0.898039215686275,0.898039215686275,
0.898039215686275);
#356=COLOUR_RGB('Aluminium - eloxiert, rau (Blau)',0.349019607843137,0.584313725490196,
0.854901960784314);
#357=COLOUR_RGB('Opaque(242,242,255)',0.949019607843137,0.949019607843137,
1.);
#358=COLOUR_RGB('Opaque(255,255,255)',1.,1.,1.);
#359=COLOUR_RGB('Opaque(211,214,211)',0.827450980392157,0.83921568627451,
0.827450980392157);
#360=COLOUR_RGB('Opaque(127,127,127)',0.498039215686275,0.498039215686275,
0.498039215686275);
#361=COLOUR_RGB('Opaque(0,191,161)',0.,0.749019607843137,0.631372549019608);
#362=COLOUR_RGB('Opaque(63,63,63)',0.250980392156863,0.250980392156863,
0.250980392156863);
#363=COLOUR_RGB('Opaque(244,244,244)',0.956862745098039,0.956862745098039,
0.956862745098039);
#364=COLOUR_RGB('Opaque(242,242,242)',0.949019607843137,0.949019607843137,
0.949019607843137);
#365=COLOUR_RGB('Opaque(10,74,171)',0.0392156862745098,0.290196078431373,
0.670588235294118);
#366=COLOUR_RGB('Opaque(5,5,5)',0.0196078431372549,0.0196078431372549,0.0196078431372549);
#367=COLOUR_RGB('Opaque(204,204,204)',0.8,0.8,0.8);
#368=COLOUR_RGB('Opaque(10,10,10)',0.0392156862745098,0.0392156862745098,
0.0392156862745098);
ENDSEC;
END-ISO-10303-21;
